<?xml version="1.0" encoding="iso-8859-1"?>
<!-- Generator: Adobe Illustrator 19.0.0, SVG Export Plug-In . SVG Version: 6.00 Build 0)  -->
<svg version="1.1" id="Capa_1" xmlns="http://www.w3.org/2000/svg" xmlns:xlink="http://www.w3.org/1999/xlink" x="0px" y="0px"
	 viewBox="0 0 496.941 496.941" style="enable-background:new 0 0 496.941 496.941;" xml:space="preserve">
<g>
	<g>
		<g>
			<path d="M489.412,164.141H366.682l-85.835-97.129c5.271-6.776,9.035-15.812,9.035-25.6C289.882,18.824,271.059,0,248.471,0
				s-41.412,18.824-41.412,41.412c0,9.788,3.765,18.824,9.035,25.6l-85.835,97.129H7.529c-4.518,0-7.529,3.012-7.529,7.529v317.741
				c0,4.518,3.012,7.529,7.529,7.529h481.882c4.518,0,7.529-3.012,7.529-7.529V171.671
				C496.941,167.153,493.929,164.141,489.412,164.141z M248.471,15.059c15.059,0,26.353,12.047,26.353,26.353
				c0,14.306-11.294,26.353-26.353,26.353c-15.059,0-26.353-12.047-26.353-26.353C222.118,27.106,233.412,15.059,248.471,15.059z
				 M227.388,76.8c13.553,7.529,29.365,7.529,42.918,0l76.047,87.341H150.588L227.388,76.8z M481.882,481.882H15.059V179.2h101.647
				l-33.882,38.4H68.518c-4.518,0-7.529,3.012-7.529,7.529s3.012,7.529,7.529,7.529h44.424c4.518,0,7.529-3.012,7.529-7.529
				s-3.012-7.529-7.529-7.529h-9.788l33.882-38.4h222.871l33.882,38.4H384c-4.518,0-7.529,3.012-7.529,7.529
				s3.012,7.529,7.529,7.529h45.176c4.518,0,7.529-3.012,7.529-7.529s-3.012-7.529-7.529-7.529h-15.059l-33.882-38.4h101.647
				V481.882z"/>
			<polygon points="111.435,303.435 155.106,361.412 175.435,361.412 175.435,269.553 155.106,269.553 155.106,328.282 
				109.929,269.553 90.353,269.553 90.353,361.412 111.435,361.412 			"/>
			<polygon points="265.035,343.341 218.353,343.341 218.353,323.765 259.012,323.765 259.012,306.447 218.353,306.447 
				218.353,287.624 263.529,287.624 263.529,269.553 198.024,269.553 198.024,361.412 265.035,361.412 			"/>
			<polygon points="365.929,322.259 350.118,269.553 328.282,269.553 312.471,322.259 294.4,269.553 271.812,269.553 
				304.188,361.412 319.247,361.412 338.824,297.412 359.153,361.412 374.212,361.412 406.588,269.553 384,269.553 			"/>
			<path d="M390.776,396.047H106.165c-4.518,0-7.529,3.012-7.529,7.529s3.012,7.529,7.529,7.529h284.612
				c4.518,0,7.529-3.012,7.529-7.529S395.294,396.047,390.776,396.047z"/>
			<path d="M390.776,438.212H106.165c-4.518,0-7.529,3.012-7.529,7.529s3.012,7.529,7.529,7.529h284.612
				c4.518,0,7.529-3.012,7.529-7.529S395.294,438.212,390.776,438.212z"/>
		</g>
	</g>
</g>
<g>
</g>
<g>
</g>
<g>
</g>
<g>
</g>
<g>
</g>
<g>
</g>
<g>
</g>
<g>
</g>
<g>
</g>
<g>
</g>
<g>
</g>
<g>
</g>
<g>
</g>
<g>
</g>
<g>
</g>
</svg>
