<?xml version="1.0" encoding="iso-8859-1"?>
<!-- Generator: Adobe Illustrator 19.0.0, SVG Export Plug-In . SVG Version: 6.00 Build 0)  -->
<svg version="1.1" id="Capa_1" xmlns="http://www.w3.org/2000/svg" xmlns:xlink="http://www.w3.org/1999/xlink" x="0px" y="0px"
	 viewBox="0 0 60 60" style="enable-background:new 0 0 60 60;" xml:space="preserve">
<g>
	<g>
		<path d="M2,2h29v8c0,0.6,0.4,1,1,1h8v3h2v-4l0,0c0-0.1,0-0.2-0.1-0.3V9.6c-0.1-0.1-0.1-0.2-0.2-0.3l-9-9c-0.1-0.1-0.2-0.1-0.3-0.2
			h-0.1C32.2,0.1,32.1,0,32,0l0,0H1C0.4,0,0,0.4,0,1v58c0,0.6,0.4,1,1,1h15v-2H2L2,2L2,2z M38.6,9H33V3.4L38.6,9z"/>
		<path d="M59,16H31c-0.6,0-1,0.4-1,1v16c0,0.6,0.4,1,1,1h28c0.6,0,1-0.4,1-1V17C60,16.4,59.6,16,59,16z M58,32H32V18h26V32z"/>
		<path d="M59,36H19c-0.6,0-1,0.4-1,1v22c0,0.6,0.4,1,1,1h40c0.6,0,1-0.4,1-1V37C60,36.4,59.6,36,59,36z M55.5,38L40,47.8L22.7,38
			H55.5z M20,58V38.8l19.5,11.1C39.7,50,39.8,50,40,50s0.4-0.1,0.6-0.2l17.4-11V58H20z"/>
		<rect x="50" y="22" width="5" height="2"/>
		<rect x="44" y="26" width="11" height="2"/>
		<path d="M38,28c1.7,0,3-1.3,3-3s-1.3-3-3-3s-3,1.3-3,3S36.3,28,38,28z M38,24c0.6,0,1,0.4,1,1s-0.4,1-1,1s-1-0.4-1-1
			S37.4,24,38,24z"/>
		<rect x="6" y="6" width="6" height="2"/>
		<rect x="6" y="11" width="19" height="2"/>
		<rect x="6" y="18" width="12" height="2"/>
		<rect x="6" y="24" width="19" height="2"/>
		<rect x="6" y="30" width="19" height="2"/>
		<rect x="6" y="36" width="9" height="2"/>
		<rect x="6" y="42" width="9" height="2"/>
		<rect x="6" y="48" width="9" height="2"/>
	</g>
</g>
<g>
</g>
<g>
</g>
<g>
</g>
<g>
</g>
<g>
</g>
<g>
</g>
<g>
</g>
<g>
</g>
<g>
</g>
<g>
</g>
<g>
</g>
<g>
</g>
<g>
</g>
<g>
</g>
<g>
</g>
</svg>
