<?xml version="1.0" encoding="utf-8"?>
<!-- Generator: Adobe Illustrator 19.0.0, SVG Export Plug-In . SVG Version: 6.00 Build 0)  -->
<svg version="1.1" id="Capa_3" xmlns="http://www.w3.org/2000/svg" xmlns:xlink="http://www.w3.org/1999/xlink" x="0px" y="0px"
	 viewBox="0 0 178 66" style="enable-background:new 0 0 178 66;" xml:space="preserve">
<style type="text/css">
	.st0{fill:#FFFFFF;}
	.st1{fill:#FFED00;}
	.st2{fill:#878787;}
</style>
<g>
	<g id="XMLID_1_">
		<g id="XMLID_20_">
			<path id="XMLID_26_" class="st0" d="M29.8,27.2c0-0.4,0.3-0.8,0.7-0.9v1.9C30.1,28.1,29.8,27.7,29.8,27.2L29.8,27.2z"/>
			<path id="XMLID_25_" class="st0" d="M31,25.2c0-0.7,0.6-1.2,1.2-1.2h0.4l-0.3,1.4c0,0,0,0,0,0.1c0,0.1,0.1,0.2,0.2,0.3
				c0.1,0,0.3-0.1,0.3-0.2l0.3-1.5h1.2l-0.8,4.3c0,0,0,0,0,0.1c0,0.1,0.1,0.2,0.2,0.3c0.1,0,0.3-0.1,0.3-0.2l0.7-3.6v5.8h-1.1
				c0,0,0,0,0,0l0.1-0.6c0-0.1-0.1-0.3-0.2-0.3c-0.1,0-0.3,0.1-0.3,0.2l-0.1,0.6c0,0,0,0.1,0,0.1h-1c-0.1,0-0.2,0-0.3,0
				c0,0,0,0,0-0.1l0.7-3.8c0-0.1-0.1-0.3-0.2-0.3c-0.1,0-0.3,0.1-0.3,0.2l-0.7,3.7c-0.3-0.2-0.5-0.6-0.5-1V25.2L31,25.2z"/>
			<path id="XMLID_21_" class="st0" d="M30.5,26.3c0,0-1.2,0.3-2.1,1.7c-0.2,0.3-0.3,0.5-0.7,0.9c-0.3,0.4-0.7,0.8-1.3,1.2
				c-0.2,0.2-0.4,0.3-0.7,0.5c0.2-0.6,0.3-1.2,0.3-1.7c0-0.5-0.1-1-0.3-1.5c-0.1-0.5-0.3-0.9-0.4-1.3c-0.1-0.4-0.2-0.7-0.1-1
				c0-0.6,0.3-1.1,0.6-1.5c0.4-0.4,0.7-0.8,1.1-1.3c0.2-0.2,0.2-0.5,0.1-0.7c-0.1-0.2-0.3-0.4-0.6-0.5c-0.3-0.1-0.6-0.2-0.9-0.2
				c-0.3,0-0.6,0.1-0.8,0.3c-0.1,0.1-0.3,0.3-0.6,0.7c-0.3,0.3-0.6,0.7-0.9,1.1c-0.3,0.4-0.7,0.9-1.1,1.4c-0.4,0.5-0.8,1-1.1,1.4
				c-0.4,0.4-0.7,0.8-1,1.2c-0.3,0.3-0.5,0.6-0.6,0.7c-0.1,0.2-0.4,0.5-0.6,0.7c-0.3,0.3-0.5,0.5-0.8,0.8c-0.3,0.3-0.6,0.5-0.9,0.8
				c-0.3,0.2-0.6,0.5-0.9,0.6c-0.6,0.4-1.2,0.6-1.7,0.7c-0.6,0.1-1.1,0.1-1.5,0.1c-0.4-0.1-0.8-0.2-1.1-0.5c-0.3-0.3-0.5-0.6-0.5-1
				c0.3,0,0.7,0,1.1,0c0.4,0,0.9-0.1,1.4-0.3c0.5-0.2,1-0.4,1.6-0.7c0.5-0.3,1.1-0.7,1.7-1.3c0.3-0.3,0.6-0.6,0.9-1.1
				c0.3-0.5,0.5-0.9,0.6-1.4c0.1-0.5,0.1-1-0.1-1.4c-0.1-0.4-0.5-0.8-1-1c-0.6-0.2-1.3-0.3-2-0.2c-0.7,0.1-1.4,0.3-2.1,0.7
				c-0.7,0.4-1.3,0.9-2,1.6c-0.6,0.6-1.2,1.4-1.7,2.2c-0.4,0.7-0.7,1.5-0.8,2.3c-0.1,0.8,0,1.6,0.4,2.4c0.2,0.6,0.7,1,1.3,1.3
				c0.6,0.3,1.3,0.5,2.1,0.6c0.8,0,1.6,0,2.5-0.3c0.9-0.2,1.7-0.6,2.4-1.2c0.2-0.2,0.5-0.4,0.7-0.6c0,0.2,0.1,0.3,0.2,0.5
				c0.1,0.3,0.4,0.6,0.6,0.8c0.3,0.2,0.6,0.4,1,0.6c0.4,0.1,0.8,0.2,1.2,0.3c0.4,0,0.8,0,1.3-0.1c0.8,0,1.6-0.2,2.6-0.5
				c0.9-0.3,1.8-0.8,2.7-1.6c0.7-0.6,1.3-1.2,1.7-1.7c0.4-0.5,0.7-0.9,1-1.3c0.1-0.1,0.1-0.3,0.1-0.4l0,0V26.3z M11.7,28
				c0.3-0.5,0.6-1,1-1.5c0.3-0.4,0.7-0.8,1-1.2c0.3-0.3,0.7-0.6,1-0.8c0.3-0.2,0.6-0.3,0.9-0.3c0.5,0,0.7,0.2,0.6,0.7
				c-0.1,0.5-0.4,1-1,1.6c-0.5,0.5-1.1,0.9-1.7,1.1C12.8,28,12.2,28.1,11.7,28L11.7,28z M22.9,30.8c-0.1,0.4-0.4,0.7-0.7,0.9
				c-0.3,0.2-0.6,0.2-0.9,0.1c-0.3-0.1-0.5-0.2-0.7-0.5c-0.2-0.2-0.4-0.5-0.4-0.8c-0.1-0.3,0-0.6,0.1-0.8c0.1-0.2,0.4-0.5,0.7-1
				c0.3-0.4,0.9-1,1.6-1.9c0.1,0.3,0.3,0.8,0.4,1.2c0.1,0.5,0.1,0.9,0.1,1.4C23.1,30,23.1,30.4,22.9,30.8z"/>
		</g>
		<g id="XMLID_2_">
			<g id="XMLID_6_">
				<path id="XMLID_19_" class="st1" d="M63.3,18.7c-1.6,0-2.8,0.7-3.5,1.5l0.1-1.1h-6.5v3.2H56v11h-2.8v3.3h9.3v-3.3h-2.8v-4.9
					c0-2.8,0.5-6.2,2.9-6.2c0.8,0,1.3,0.4,1.5,1.3l0.2,0.9l3.3-2.2l-0.1-0.4C67,19.8,65.5,18.7,63.3,18.7z"/>
				<path id="XMLID_18_" class="st1" d="M75.3,33.2c-0.3,0.3-0.5,0.4-0.9,0.4c-0.2,0-0.5,0-0.5-1V19.2h-5.7v3.3h2v10.4
					c0,3.3,2,3.9,3.6,3.9c1.3,0,2.3-0.4,3-1.2l0.2-0.3L76,32.5L75.3,33.2z"/>
				<path id="XMLID_17_" class="st1" d="M72.2,16.3c1.5,0,2.3-1.2,2.3-2.2c0-1.3-1-2.2-2.3-2.2c-1.3,0-2.3,1-2.3,2.2
					C69.9,15.1,70.7,16.3,72.2,16.3z"/>
				<path id="XMLID_16_" class="st1" d="M85,33.2c-0.3,0.3-0.5,0.4-0.9,0.4c-0.2,0-0.5,0-0.5-1V7.2h-5.7v3.3h2v22.4
					c0,3.3,1.9,3.9,3.6,3.9c1.3,0,2.4-0.4,3-1.2l0.2-0.3l-1.1-2.9L85,33.2z"/>
				<path id="XMLID_15_" class="st1" d="M94.6,33.2c-0.3,0.3-0.5,0.4-0.9,0.4c-0.2,0-0.5,0-0.5-1V7.2h-5.7v3.3h2v22.4
					c0,3.3,1.9,3.9,3.6,3.9c1.3,0,2.4-0.4,3-1.2l0.2-0.3l-1.1-2.9L94.6,33.2z"/>
				<path id="XMLID_12_" class="st1" d="M113.9,33.2c-0.3,0.3-0.5,0.4-0.8,0.4c-0.3,0-0.4,0-0.4-0.8v-7.6c0-2.9-1.3-6.4-7.3-6.4
					c-3.4,0-5.6,1.1-7,3.8l-0.3,0.5l3.1,1.8l0.3-0.7c0.6-1.6,1.8-2.3,3.9-2.3c2.5,0,3.6,0.9,3.6,3.1v1.3l0,0.1h-4.3
					c-6,0-6.9,3.3-6.9,5.3c0,3.2,2.3,5.1,6.2,5.1c2.3,0,4.3-0.6,5.5-1.7c0.6,1.1,1.6,1.6,3.1,1.6c1.2,0,2.2-0.4,2.9-1.2l0.3-0.3
					l-1.1-2.8L113.9,33.2z M104.4,33.7c-3,0-3-1.5-3-2c0-1.5,1.1-2.2,3.2-2.2h4.3v1.1C108.9,32.5,107.2,33.7,104.4,33.7z"/>
				<path id="XMLID_11_" class="st1" d="M135.7,33.2c-0.2,0.3-0.4,0.4-0.8,0.4c-0.2,0-0.5,0-0.5-1v-6.9c0-4.5-2.1-6.8-6.3-6.8
					c-2.5,0-4.1,1-5,2l0.1-1.6h-6.6v3.3h2.8v11h-2.8v3.3h9.3v-3.3h-2.8v-7.2c0.6-2.6,2.1-4.1,4.4-4.1c2.3,0,3.3,1.2,3.3,3.8v6.9
					c0,3.3,2,3.9,3.6,3.9c1.3,0,2.3-0.4,3-1.2l0.3-0.3l-1.2-2.9L135.7,33.2z"/>
				<path id="XMLID_10_" class="st1" d="M147.9,32.9c-0.8,0.4-1.4,0.5-2,0.5c-1.1,0-1.5-0.3-1.5-3v-8h3.9v-3.3h-3.9v-4.9h-3.2
					l-0.4,4.9h-2.6v3.3h2.5v8.5c0,2.7,0.5,5.9,4.6,5.9c1.5,0,2.9-0.3,3.8-0.9l0.4-0.2l-0.7-3.1L147.9,32.9z"/>
				<path id="XMLID_7_" class="st1" d="M165.7,31.5l-0.7,0.6c-1.2,0.9-3.3,1.5-5.3,1.5c-2.8,0-4.5-1.1-5.1-3.4h2.8
					c6.9,0,8.3-3.1,8.3-5.8c0-3.5-2.6-5.6-6.7-5.6c-5.2,0-8.5,3.5-8.5,9.2c0,5.6,3.4,9,9,9c2.7,0,5.4-0.8,6.9-1.9l0.3-0.3
					L165.7,31.5z M158.8,21.9c0.9,0,3.2,0.2,3.2,2.6c0,0.7,0,2.6-4.6,2.6h-3.1C154.4,23.8,156.1,21.9,158.8,21.9z"/>
			</g>
			<path id="XMLID_3_" class="st1" d="M44.1,18.6c-2.7,0-4.4,1.2-5.4,2.4c0-0.7,0-1.5,0-2.2V7.1h-6.6v3.3h2.8v11.5v1.5v7.7v2.2h-2.8
				v3.3h6.6v-1.2c1.3,0.9,3.1,1.5,5,1.5c5,0,7.8-3.4,7.8-9.4C51.5,21.8,48.8,18.6,44.1,18.6z M48.4,27.5c0,0.1,0,0.2,0,0.3
				c0,0.1,0,0.2,0,0.2c0,0.1,0,0.2-0.1,0.4c0,0.1,0,0.1,0,0.2c0,0.1-0.1,0.3-0.1,0.4c0,0,0,0,0,0.1c-0.1,0.2-0.1,0.3-0.2,0.5
				c0,0,0,0,0,0c-0.1,0.3-0.3,0.7-0.5,1c0,0,0,0,0,0c-0.8,1.2-2,2-3.4,2.4c0,0-0.1,0-0.1,0c-0.2,0-0.4,0.1-0.6,0.1c0,0-0.1,0-0.1,0
				c-0.2,0-0.4,0-0.6,0c0,0,0,0,0,0c-0.2,0-0.3,0-0.5,0c0,0-0.1,0-0.1,0c-0.2,0-0.3,0-0.5-0.1c0,0-0.1,0-0.1,0
				c-0.1,0-0.3-0.1-0.4-0.1c0,0-0.1,0-0.1,0c-0.2-0.1-0.3-0.1-0.5-0.2c-0.2-0.1-0.5-0.2-0.7-0.3c-0.1-0.1-0.3-0.2-0.4-0.2
				c0,0,0,0,0,0c0,0,0,0-0.1,0c-1.1-0.6-3-1.2-4.2-1.6v-6.7c1.2-0.3,3.1-0.8,4.2-1.4c0,0,0,0,0.1,0c0,0,0,0,0,0
				c0.1-0.1,0.3-0.2,0.4-0.2c0.2-0.1,0.4-0.2,0.7-0.3c0.2-0.1,0.3-0.1,0.5-0.2c0,0,0.1,0,0.1,0c0.1,0,0.3-0.1,0.4-0.1
				c0,0,0.1,0,0.1,0c0.2,0,0.3-0.1,0.5-0.1c0,0,0.1,0,0.1,0c0.2,0,0.3,0,0.5,0c0,0,0,0,0,0c0.2,0,0.4,0,0.6,0c0,0,0.1,0,0.1,0
				c0.2,0,0.4,0.1,0.6,0.1c0,0,0.1,0,0.1,0c1.4,0.4,2.6,1.2,3.4,2.4c0,0,0,0,0,0c0.2,0.3,0.4,0.6,0.5,1c0,0,0,0,0,0
				c0.1,0.2,0.1,0.3,0.2,0.5c0,0,0,0,0,0.1c0,0.1,0.1,0.3,0.1,0.4c0,0.1,0,0.1,0,0.2c0,0.1,0,0.2,0.1,0.4c0,0.1,0,0.2,0,0.2
				c0,0.1,0,0.2,0,0.3c0,0.1,0,0.2,0,0.3C48.4,27.3,48.4,27.4,48.4,27.5z"/>
		</g>
	</g>
	<g>
		<path class="st2" d="M9.8,53.4v-0.6h0.9v-6.7H9.8v-0.6h3.1c2.1,0,3.9,1.1,3.9,3.9c0,2.8-1.8,4.1-3.9,4.1H9.8z M11.5,46.1v6.7H13
			c1.8,0,3-1.1,3-3.4c0-2.3-1.2-3.2-3.1-3.2H11.5z"/>
		<path class="st2" d="M20.2,53.2c-0.2,0.2-0.4,0.3-0.8,0.3c-0.6,0-0.9-0.4-0.9-1v-3.3h-0.6v-0.6h1.4v3.8c0,0.4,0.1,0.5,0.3,0.5
			c0.2,0,0.3,0,0.4-0.2L20.2,53.2z M18.9,46.3c0.3,0,0.5,0.2,0.5,0.5c0,0.2-0.2,0.5-0.5,0.5c-0.3,0-0.5-0.2-0.5-0.5
			C18.4,46.5,18.6,46.3,18.9,46.3z"/>
		<path class="st2" d="M21.1,52.5c0.5,0.2,1.1,0.5,1.8,0.5c0.8,0,1.3-0.3,1.3-0.8c0-1.3-2.9-0.5-2.9-2.3c0-1,0.8-1.4,1.8-1.4
			c0.9,0,1.5,0.3,1.8,0.8l-0.5,0.4C24,49.2,23.7,49,23,49c-0.6,0-1.1,0.2-1.1,0.8c0,1.2,2.9,0.4,2.9,2.3c0,1.1-0.9,1.4-2,1.4
			c-0.7,0-1.4-0.2-2-0.5L21.1,52.5z"/>
		<path class="st2" d="M26.7,51.5c0.1,0.9,0.7,1.4,1.8,1.4c0.7,0,1.4-0.2,1.7-0.5l0.2,0.6c-0.4,0.3-1.2,0.5-2,0.5
			c-1.7,0-2.5-1-2.5-2.5c0-1.5,0.8-2.6,2.4-2.6c1.1,0,1.8,0.5,1.8,1.5c0,1-0.8,1.6-2.3,1.6H26.7z M26.7,50.9h1.1
			c1.1,0,1.6-0.4,1.6-1c0-0.6-0.4-1-1.1-1C27.2,49,26.7,49.7,26.7,50.9z"/>
		<path class="st2" d="M31.3,53.4v-0.6h0.8v-3.7h-0.8v-0.6h1.6l0,0.9h0c0.2-0.4,0.7-1,1.7-1c1.3,0,1.7,0.7,1.7,1.9v2.1
			c0,0.4,0.1,0.5,0.3,0.5c0.2,0,0.3,0,0.4-0.2l0.2,0.5c-0.2,0.2-0.5,0.3-0.8,0.3c-0.6,0-0.9-0.4-0.9-1v-2.1c0-0.7-0.2-1.4-1.2-1.4
			c-0.8,0-1.3,0.5-1.5,1.4v2.4h0.8v0.6H31.3z M33.3,47.5h-0.5c0.1-0.7,0.3-1,0.8-1c0.5,0,0.7,0.4,1.1,0.4c0.2,0,0.4-0.2,0.4-0.4h0.5
			c0,0.6-0.4,1-0.8,1c-0.5,0-0.8-0.4-1.2-0.4C33.5,47.1,33.4,47.3,33.3,47.5z"/>
		<path class="st2" d="M40.5,53.5c-1.3,0-2.4-0.7-2.4-2.5c0-1.8,1.2-2.6,2.4-2.6c1.3,0,2.5,0.8,2.5,2.6S41.7,53.5,40.5,53.5z
			 M40.5,52.9c0.9,0,1.7-0.6,1.7-1.9c0-1.4-0.8-2-1.7-2s-1.7,0.6-1.7,2S39.6,52.9,40.5,52.9z"/>
		<path class="st2" d="M48.2,49c0.9,0,1.6,0.7,1.6,1.6c0,0.9-0.7,1.6-1.6,1.6c-0.9,0-1.6-0.7-1.6-1.6C46.6,49.7,47.3,49,48.2,49z"/>
		<path class="st2" d="M53.9,46.1l1.5,5.9c0.1,0.3,0.1,0.6,0.2,0.8c0-0.2,0.1-0.5,0.2-0.8l1.8-6.6h0.7L60,52
			c0.1,0.3,0.1,0.5,0.2,0.8c0-0.2,0.1-0.5,0.2-0.8l1.5-5.9H61v-0.6h2.7v0.6h-1l-2,7.4h-0.9l-1.9-6.8L56,53.5h-0.8l-2-7.4h-0.9v-0.6
			h2.6v0.6H53.9z"/>
		<path class="st2" d="M64.3,51.5c0.1,0.9,0.7,1.4,1.8,1.4c0.7,0,1.4-0.2,1.7-0.5L68,53c-0.4,0.3-1.2,0.5-2,0.5
			c-1.7,0-2.5-1-2.5-2.5c0-1.5,0.8-2.6,2.4-2.6c1.1,0,1.8,0.5,1.8,1.5c0,1-0.8,1.6-2.3,1.6H64.3z M64.3,50.9h1.1
			c1.1,0,1.6-0.4,1.6-1c0-0.6-0.4-1-1.1-1C64.8,49,64.3,49.7,64.3,50.9z"/>
		<path class="st2" d="M68.8,45.5v-0.6h1.6v3.4c0,0.5,0,1,0,1.4c0.2-0.5,0.7-1.2,1.8-1.2c1.4,0,2,0.9,2,2.5c0,1.5-0.7,2.7-2.2,2.7
			c-0.8,0-1.4-0.3-1.7-0.7v0.6h-1.6v-0.6h0.8v-7.3H68.8z M73.5,50.9c0-1.1-0.4-1.8-1.4-1.8c-1.1,0-1.6,0.9-1.6,2.3v0.9
			c0.3,0.3,0.8,0.7,1.5,0.7C73.1,52.9,73.5,52,73.5,50.9z"/>
		<path class="st2" d="M79.6,49c0.9,0,1.6,0.7,1.6,1.6c0,0.9-0.7,1.6-1.6,1.6c-0.9,0-1.6-0.7-1.6-1.6C78,49.7,78.7,49,79.6,49z"/>
		<path class="st2" d="M84.5,53.4v-0.6h0.9v-6.7h-0.9v-0.6h1.7l2.9,6.6c0.1,0.3,0.2,0.5,0.2,0.7c0-0.2,0.1-0.4,0.3-0.7l2.9-6.6h1.7
			v0.6h-0.9v6.7h0.9v0.6h-2.6v-0.6h0.9V47l-2.8,6.4h-0.8L86.1,47v5.8h1v0.6H84.5z"/>
		<path class="st2" d="M100.3,53.2c-0.2,0.2-0.4,0.3-0.7,0.3c-0.5,0-0.8-0.2-0.9-0.7c-0.2,0.4-0.8,0.7-1.7,0.7
			c-1.1,0-1.7-0.5-1.7-1.4s0.6-1.4,1.9-1.4h1.5v-0.2h0v-0.4c0-0.9-0.6-1.1-1.3-1.1c-0.7,0-1.1,0.3-1.4,0.8l-0.6-0.3
			c0.4-0.7,0.9-1.1,2-1.1c1,0,2,0.3,2,1.7v2.3c0,0.2,0,0.4,0.3,0.4c0.2,0,0.3-0.1,0.4-0.2L100.3,53.2z M98.6,51.2h-1.5
			c-0.9,0-1.2,0.4-1.2,0.9c0,0.5,0.3,0.8,1.1,0.8c1,0,1.6-0.5,1.6-1.2V51.2z"/>
		<path class="st2" d="M100.9,53.4v-0.6h0.8v-3.7H101v-0.6h1.6l-0.1,1h0c0.1-0.5,0.5-1.1,1.3-1.1c0.6,0,1,0.3,1.1,0.8l-0.7,0.4
			c-0.1-0.2-0.2-0.5-0.6-0.5c-0.7,0-1.1,0.7-1.1,2.1v1.7h0.8v0.6H100.9z"/>
		<path class="st2" d="M106.8,49.3c0.3-0.5,0.8-0.9,1.8-0.9c0.8,0,1.4,0.4,1.4,1.2c0,0.9-0.8,1.3-1.6,1.4v0c0.8,0.1,1.1,0.5,1.2,1.2
			c0.1,0.4,0.1,0.7,0.5,0.7c0.2,0,0.3-0.1,0.4-0.2l0.2,0.5c-0.2,0.2-0.4,0.3-0.7,0.3c-0.7,0-0.9-0.5-1-1.1c-0.1-0.4-0.2-1-1.7-1
			h-0.5v1.5h0.8v0.6h-2.4v-0.6h0.8v-7.3h-0.9v-0.6h1.6V49.3z M106.8,50.5v0.2h0.2c1.2,0,2.2-0.2,2.2-1c0-0.4-0.2-0.7-0.8-0.7
			C107.5,49,106.8,49.5,106.8,50.5z"/>
		<path class="st2" d="M112,51.5c0.1,0.9,0.7,1.4,1.8,1.4c0.7,0,1.4-0.2,1.7-0.5l0.2,0.6c-0.4,0.3-1.2,0.5-2,0.5
			c-1.7,0-2.5-1-2.5-2.5c0-1.5,0.8-2.6,2.4-2.6c1.1,0,1.8,0.5,1.8,1.5c0,1-0.8,1.6-2.3,1.6H112z M112,50.9h1.1c1.1,0,1.6-0.4,1.6-1
			c0-0.6-0.4-1-1.1-1C112.6,49,112,49.7,112,50.9z"/>
		<path class="st2" d="M119.5,53.2c-0.2,0.2-0.6,0.2-1,0.2c-0.9,0-1.2-0.5-1.2-1.6v-2.8h-0.8v-0.6h0.8l0.1-1.5h0.6v1.5h1.2v0.6H118
			v2.6c0,0.7,0.1,1.1,0.7,1.1c0.3,0,0.4-0.1,0.7-0.2L119.5,53.2z"/>
		<path class="st2" d="M122.5,53.2c-0.2,0.2-0.4,0.3-0.8,0.3c-0.6,0-0.9-0.4-0.9-1v-3.3h-0.6v-0.6h1.4v3.8c0,0.4,0.1,0.5,0.3,0.5
			c0.2,0,0.3,0,0.4-0.2L122.5,53.2z M121.2,46.3c0.3,0,0.5,0.2,0.5,0.5c0,0.2-0.2,0.5-0.5,0.5c-0.3,0-0.5-0.2-0.5-0.5
			C120.7,46.5,120.9,46.3,121.2,46.3z"/>
		<path class="st2" d="M123.2,53.4v-0.6h0.8v-3.7h-0.8v-0.6h1.6l0,0.9h0c0.2-0.4,0.7-1,1.7-1c1.3,0,1.7,0.7,1.7,1.9v2.1
			c0,0.4,0.1,0.5,0.3,0.5c0.2,0,0.3,0,0.4-0.2l0.2,0.5c-0.2,0.2-0.5,0.3-0.8,0.3c-0.6,0-0.9-0.4-0.9-1v-2.1c0-0.7-0.2-1.4-1.2-1.4
			c-0.8,0-1.3,0.5-1.5,1.4v2.4h0.8v0.6H123.2z"/>
		<path class="st2" d="M131.8,53.3h1.1c1.1,0,2,0.3,2,1.4c0,1.2-1,1.6-2.6,1.6c-1.4,0-2.3-0.3-2.7-0.7l0.4-0.5
			c0.4,0.3,0.9,0.6,2.3,0.6c1.3,0,1.9-0.3,1.9-0.9c0-0.6-0.5-0.8-1.4-0.8h-1.1c-1,0-1.6-0.3-1.6-1c0-0.6,0.3-0.9,0.9-1
			c-0.6-0.3-0.9-0.9-0.9-1.6c0-1,0.6-1.9,2-1.9c0.6,0,1,0.1,1.3,0.4c0.2-0.4,0.5-0.6,1-0.6c0.5,0,0.8,0.2,0.9,0.6l-0.5,0.3
			c-0.1-0.1-0.2-0.2-0.4-0.2c-0.3,0-0.4,0.2-0.5,0.5c0.2,0.3,0.3,0.7,0.3,1.1c0,0.9-0.6,1.8-2,1.8c-0.9,0-1.2,0.2-1.2,0.6
			C130.8,53.2,131.2,53.3,131.8,53.3z M130.7,50.3c0,0.6,0.3,1.3,1.3,1.3c0.9,0,1.3-0.6,1.3-1.3S132.9,49,132,49
			C131.1,49,130.7,49.6,130.7,50.3z"/>
		<path class="st2" d="M145.4,49.4c0,2.1-1,4.1-3.5,4.1c-2.5,0-3.5-2-3.5-4.1c0-2.4,1-4.1,3.5-4.1C144.4,45.3,145.4,47,145.4,49.4z
			 M139.2,49.4c0,1.7,0.7,3.5,2.7,3.5s2.7-1.8,2.7-3.5c0-2.1-0.8-3.5-2.7-3.5S139.2,47.4,139.2,49.4z"/>
		<path class="st2" d="M146.5,53.4v-0.6h0.8v-3.7h-0.8v-0.6h1.6l0,0.9h0c0.2-0.4,0.7-1,1.7-1c1.3,0,1.7,0.7,1.7,1.9v2.1
			c0,0.4,0.1,0.5,0.3,0.5c0.2,0,0.3,0,0.4-0.2l0.2,0.5c-0.2,0.2-0.5,0.3-0.8,0.3c-0.6,0-0.9-0.4-0.9-1v-2.1c0-0.7-0.2-1.4-1.2-1.4
			c-0.8,0-1.3,0.5-1.5,1.4v2.4h0.8v0.6H146.5z"/>
		<path class="st2" d="M154.4,52.4c0,0.4,0.1,0.5,0.3,0.5c0.2,0,0.3,0,0.4-0.2l0.2,0.5c-0.2,0.2-0.4,0.3-0.8,0.3
			c-0.6,0-0.9-0.4-0.9-1v-7h-0.6v-0.6h1.4V52.4z"/>
		<path class="st2" d="M158.4,53.2c-0.2,0.2-0.4,0.3-0.8,0.3c-0.6,0-0.9-0.4-0.9-1v-3.3h-0.6v-0.6h1.4v3.8c0,0.4,0.1,0.5,0.3,0.5
			c0.2,0,0.3,0,0.4-0.2L158.4,53.2z M157.1,46.3c0.3,0,0.5,0.2,0.5,0.5c0,0.2-0.2,0.5-0.5,0.5c-0.3,0-0.5-0.2-0.5-0.5
			C156.6,46.5,156.8,46.3,157.1,46.3z"/>
		<path class="st2" d="M159.1,53.4v-0.6h0.8v-3.7h-0.8v-0.6h1.6l0,0.9h0c0.2-0.4,0.7-1,1.7-1c1.3,0,1.7,0.7,1.7,1.9v2.1
			c0,0.4,0.1,0.5,0.3,0.5c0.2,0,0.3,0,0.4-0.2l0.2,0.5c-0.2,0.2-0.5,0.3-0.8,0.3c-0.6,0-0.9-0.4-0.9-1v-2.1c0-0.7-0.2-1.4-1.2-1.4
			c-0.8,0-1.3,0.5-1.5,1.4v2.4h0.8v0.6H159.1z"/>
		<path class="st2" d="M166.6,51.5c0.1,0.9,0.7,1.4,1.8,1.4c0.7,0,1.4-0.2,1.7-0.5l0.2,0.6c-0.4,0.3-1.2,0.5-2,0.5
			c-1.7,0-2.5-1-2.5-2.5c0-1.5,0.8-2.6,2.4-2.6c1.1,0,1.8,0.5,1.8,1.5c0,1-0.8,1.6-2.3,1.6H166.6z M166.6,50.9h1.1
			c1.1,0,1.6-0.4,1.6-1c0-0.6-0.4-1-1.1-1C167.1,49,166.6,49.7,166.6,50.9z"/>
	</g>
</g>
</svg>
